<svg xmlns="http://www.w3.org/2000/svg" viewBox="0 0 200 200">
  <!-- Calendar base -->
  <rect x="25" y="40" width="150" height="140" rx="10" ry="10" fill="#ffffff" stroke="#ffffff" stroke-width="5"/>
  
  <!-- Calendar top bar -->
  <rect x="25" y="40" width="150" height="30" rx="10" ry="10" fill="#ffffff" stroke="#ffffff" stroke-width="5"/>
  
  <!-- Calendar hangers -->
  <rect x="60" y="20" width="8" height="20" rx="4" ry="4" fill="#ffffff"/>
  <rect x="130" y="20" width="8" height="20" rx="4" ry="4" fill="#ffffff"/>
  
  <!-- Calendar date lines - BLACK grid with MARGINS -->
  <!-- Horizontal lines with margins -->
  <line x1="40" y1="70" x2="160" y2="70" stroke="#000000" stroke-width="2"/>
  <line x1="40" y1="100" x2="160" y2="100" stroke="#000000" stroke-width="2"/>
  <line x1="40" y1="130" x2="160" y2="130" stroke="#000000" stroke-width="2"/>
  <line x1="40" y1="160" x2="160" y2="160" stroke="#000000" stroke-width="2"/>
  
  <!-- Vertical lines with margins -->
  <line x1="40" y1="70" x2="40" y2="160" stroke="#000000" stroke-width="2"/>
  <line x1="80" y1="70" x2="80" y2="160" stroke="#000000" stroke-width="2"/>
  <line x1="120" y1="70" x2="120" y2="160" stroke="#000000" stroke-width="2"/>
  <line x1="160" y1="70" x2="160" y2="160" stroke="#000000" stroke-width="2"/>
  
  <!-- Calendar markers for days -->
  <circle cx="60" cy="85" r="5" fill="#ffffff"/>
  <circle cx="100" cy="85" r="5" fill="#ffffff"/>
  <circle cx="140" cy="85" r="5" fill="#ffffff"/>
  
  <!-- Appointment marker -->
  <rect x="90" y="110" width="20" height="10" rx="3" ry="3" fill="#ffffff" stroke="#ffffff" stroke-width="2"/>
  
  <!-- Check mark -->
  <circle cx="140" cy="145" r="10" fill="#ffffff"/>
  <path d="M135 145 L139 149 L145 141" fill="none" stroke="#ffffff" stroke-width="3" stroke-linecap="round" stroke-linejoin="round"/>
</svg>
